<svg version="1.1" id="Layer_1" xmlns="http://www.w3.org/2000/svg" xmlns:xlink="http://www.w3.org/1999/xlink" x="0px" y="0px"
	 width="100%" viewBox="0 0 500 500" enable-background="new 0 0 500 500" xml:space="preserve">
<path fill="#FFFFFF" opacity="1.000000" stroke="none" 
	d="
M271.000000,501.000000 
	C180.666687,501.000000 90.833374,501.000000 1.000048,501.000000 
	C1.000032,334.333405 1.000032,167.666794 1.000016,1.000138 
	C167.666565,1.000092 334.333130,1.000092 500.999756,1.000046 
	C500.999847,167.666519 500.999847,334.333038 500.999939,500.999786 
	C424.500000,501.000000 348.000000,501.000000 271.000000,501.000000 
M98.029144,219.242355 
	C93.611916,218.421310 91.521805,220.292984 90.344780,224.654022 
	C88.084229,233.029739 85.209427,241.239655 82.589424,249.518356 
	C79.028664,241.124207 76.555199,232.766953 74.101265,224.403961 
	C72.396843,218.595291 71.528549,218.164948 64.631180,220.295959 
	C68.446686,232.792313 72.100494,245.353241 76.263687,257.743042 
	C76.876488,259.566742 79.949265,261.732635 81.804428,261.661743 
	C83.922890,261.580811 86.843567,259.628937 87.835907,257.684082 
	C89.926071,253.587616 90.980118,248.963348 92.469406,244.559067 
	C93.531006,241.419586 94.608986,238.285645 95.679657,235.149216 
	C98.726433,242.104279 100.791931,248.767029 102.785980,255.451080 
	C103.802261,258.857635 105.387527,261.758759 109.370438,261.925842 
	C113.689003,262.107025 115.381393,258.994415 116.515099,255.487366 
	C119.735252,245.526077 122.930832,235.556793 126.115944,225.584244 
	C126.698074,223.761627 127.185440,221.908722 127.723114,220.047073 
	C120.290619,218.345505 119.972931,218.529480 117.951729,224.921616 
	C115.308540,233.280807 112.643875,241.633209 109.552353,251.360733 
	C106.705879,241.544586 104.347816,233.113159 101.770325,224.749344 
	C101.177254,222.824860 99.831169,221.132446 98.029144,219.242355 
M176.137833,245.981674 
	C176.084045,241.165512 176.246765,236.334930 175.927353,231.536453 
	C175.405457,223.695648 171.592819,220.155640 163.829727,219.994934 
	C159.346939,219.902130 154.857361,219.885818 150.376297,220.018555 
	C143.528824,220.221405 139.569290,223.414963 139.111374,230.133667 
	C138.616302,237.397568 138.621277,244.749176 139.130035,252.011948 
	C139.586777,258.532227 143.475677,261.698669 150.010162,261.972076 
	C153.492783,262.117798 156.985504,262.035095 160.473663,262.033325 
	C172.707626,262.027130 175.644058,259.176239 176.137833,245.981674 
M221.304382,235.782379 
	C221.367264,233.797058 221.677246,231.782654 221.447754,229.831726 
	C220.693512,223.420090 218.338104,220.291412 213.379959,220.122040 
	C204.745041,219.827072 196.092758,220.039978 187.199188,220.039978 
	C187.199188,222.577057 187.199188,224.799728 187.199188,227.568375 
	C194.489243,227.568375 201.453217,227.620331 208.415802,227.545258 
	C211.632004,227.510574 213.960190,228.125305 214.011093,232.085846 
	C214.063126,236.135498 212.023285,237.172073 208.362457,237.080750 
	C201.401855,236.907120 194.433838,237.030441 187.249695,237.030441 
	C187.249695,245.591385 187.249695,253.620636 187.249695,261.734924 
	C189.725891,261.734924 191.810120,261.734924 194.448334,261.734924 
	C194.448334,256.032440 194.448334,250.613937 194.448334,245.299576 
	C204.686798,243.905228 204.687378,243.904892 209.328583,252.151886 
	C210.307404,253.891144 211.490143,255.550949 212.215851,257.390594 
	C214.271500,262.601746 218.019180,262.827881 223.344101,261.259491 
	C220.127777,255.610489 217.133408,250.351318 214.952454,246.520767 
	C217.408051,242.589249 219.282745,239.587769 221.304382,235.782379 
M319.205658,240.853195 
	C319.205658,247.779785 319.205658,254.706375 319.205658,261.756531 
	C322.125854,261.756531 324.211731,261.756531 327.013733,261.756531 
	C327.013733,255.966156 327.013733,250.442169 327.013733,245.476929 
	C335.151520,242.815048 339.741302,245.800156 342.249054,252.819839 
	C342.798798,254.358749 344.118347,255.627594 344.639801,257.170715 
	C346.468872,262.583130 350.367157,262.659729 355.912598,261.423706 
	C354.168091,258.333069 352.664093,255.669113 351.160645,253.004822 
	C349.640594,250.311081 348.121124,247.617020 346.597260,244.915756 
	C353.203430,241.521667 355.502350,235.663528 353.730194,227.756683 
	C352.537354,222.434525 349.827728,220.083664 344.333740,219.995270 
	C337.349060,219.882889 330.359192,220.058273 323.375946,219.907303 
	C320.510010,219.845337 319.128967,220.544067 319.124298,223.749908 
	C319.119537,227.010010 320.655365,227.655746 323.440155,227.609787 
	C329.593079,227.508240 335.749756,227.644119 341.903442,227.568268 
	C345.485779,227.524124 346.469849,229.501648 346.388092,232.642090 
	C346.308472,235.701172 344.998108,237.135818 341.777344,237.062302 
	C335.625854,236.921951 329.459961,236.847870 323.320801,237.157562 
	C321.908875,237.228775 320.580872,238.962769 319.205658,240.853195 
M393.888214,236.209763 
	C390.537262,244.570663 387.186340,252.931564 383.803253,261.372650 
	C389.170013,262.834900 392.901886,262.510864 393.992767,256.936829 
	C394.508057,254.304062 396.153015,253.596680 398.683228,253.757462 
	C401.708954,253.949753 404.756226,253.802841 407.834717,253.802841 
	C407.835358,246.677994 404.340393,245.080368 398.312836,246.034500 
	C400.586884,240.334198 402.593109,235.305176 405.069061,229.098724 
	C409.166504,239.347427 412.673401,248.131302 416.190186,256.911194 
	C418.592529,262.908844 419.200592,263.174500 426.192810,261.018158 
	C421.061310,248.405029 416.093872,235.761322 410.659973,223.321381 
	C409.873627,221.521225 406.826447,219.669876 404.866638,219.712997 
	C402.904205,219.756165 400.289368,221.733612 399.208588,223.589890 
	C397.056549,227.286026 395.760376,231.480453 393.888214,236.209763 
M260.178802,231.792740 
	C262.240387,228.152008 264.301941,224.511292 266.453339,220.711914 
	C260.737701,218.953888 257.472290,220.181183 255.619064,225.004883 
	C254.675583,227.460632 252.822479,229.558075 251.796539,231.992767 
	C249.711594,236.940659 246.150772,237.891327 240.845276,236.405975 
	C240.845276,230.986633 240.845276,225.583115 240.845276,220.347595 
	C238.176682,220.347595 236.109192,220.347595 233.879883,220.347595 
	C233.879883,234.331131 233.879883,247.934830 233.879883,261.783875 
	C236.268799,261.783875 238.361359,261.783875 241.127777,261.783875 
	C241.127777,256.044342 241.127777,250.493347 241.127777,245.161484 
	C246.859192,243.633179 250.483231,245.058151 252.579514,250.135513 
	C253.586731,252.575027 255.489258,254.658493 256.404541,257.119568 
	C258.370117,262.404816 262.125793,262.744598 267.727112,261.400543 
	C263.503479,254.082718 259.497040,247.141251 255.427658,240.090668 
	C256.855591,237.639297 258.361908,235.053345 260.178802,231.792740 
M288.950195,261.990479 
	C294.277588,262.006317 299.608093,261.919922 304.931122,262.080811 
	C307.633148,262.162537 308.856232,261.375763 308.884521,258.459534 
	C308.913635,255.462830 307.890320,254.217163 304.832062,254.325470 
	C300.508911,254.478546 296.165527,254.170105 291.850281,254.409637 
	C287.263000,254.664246 285.494720,252.453613 285.502472,248.205002 
	C285.505798,246.373901 285.458954,244.542770 285.457581,242.711624 
	C285.452026,235.270935 285.455261,227.830246 285.455261,220.217072 
	C282.647430,220.217072 280.552246,220.217072 278.289368,220.217072 
	C278.289368,231.063049 277.953278,241.673035 278.427277,252.246704 
	C278.674530,257.762543 282.213074,261.333252 288.950195,261.990479 
M436.897583,246.495972 
	C436.897583,251.587006 436.897583,256.678040 436.897583,261.787415 
	C439.697083,261.787415 441.638794,261.787415 443.943420,261.787415 
	C443.943420,247.852432 443.943420,234.151276 443.943420,220.305359 
	C441.519989,220.305359 439.469452,220.305359 436.897552,220.305359 
	C436.897552,228.913544 436.897552,237.205643 436.897583,246.495972 
M372.423248,255.056061 
	C371.608826,254.931458 370.731964,254.554749 369.993622,254.737534 
	C368.673126,255.064423 366.682587,255.435913 366.339355,256.319702 
	C365.814636,257.670898 365.893372,259.963043 366.754517,260.942566 
	C367.578308,261.879547 370.857391,262.268066 371.098480,261.826996 
	C372.115417,259.966400 372.400391,257.705780 372.423248,255.056061 
z"/>
<path fill="#480CBD" opacity="1.000000" stroke="none" 
	d="
M98.430389,219.287796 
	C99.831169,221.132446 101.177254,222.824860 101.770325,224.749344 
	C104.347816,233.113159 106.705879,241.544586 109.552353,251.360733 
	C112.643875,241.633209 115.308540,233.280807 117.951729,224.921616 
	C119.972931,218.529480 120.290619,218.345505 127.723114,220.047073 
	C127.185440,221.908722 126.698074,223.761627 126.115944,225.584244 
	C122.930832,235.556793 119.735252,245.526077 116.515099,255.487366 
	C115.381393,258.994415 113.689003,262.107025 109.370438,261.925842 
	C105.387527,261.758759 103.802261,258.857635 102.785980,255.451080 
	C100.791931,248.767029 98.726433,242.104279 95.679657,235.149216 
	C94.608986,238.285645 93.531006,241.419586 92.469406,244.559067 
	C90.980118,248.963348 89.926071,253.587616 87.835907,257.684082 
	C86.843567,259.628937 83.922890,261.580811 81.804428,261.661743 
	C79.949265,261.732635 76.876488,259.566742 76.263687,257.743042 
	C72.100494,245.353241 68.446686,232.792313 64.631180,220.295959 
	C71.528549,218.164948 72.396843,218.595291 74.101265,224.403961 
	C76.555199,232.766953 79.028664,241.124207 82.589424,249.518356 
	C85.209427,241.239655 88.084229,233.029739 90.344780,224.654022 
	C91.521805,220.292984 93.611916,218.421310 98.430389,219.287796 
z"/>
<path fill="#460ABD" opacity="1.000000" stroke="none" 
	d="
M176.125732,246.426285 
	C175.644058,259.176239 172.707626,262.027130 160.473663,262.033325 
	C156.985504,262.035095 153.492783,262.117798 150.010162,261.972076 
	C143.475677,261.698669 139.586777,258.532227 139.130035,252.011948 
	C138.621277,244.749176 138.616302,237.397568 139.111374,230.133667 
	C139.569290,223.414963 143.528824,220.221405 150.376297,220.018555 
	C154.857361,219.885818 159.346939,219.902130 163.829727,219.994934 
	C171.592819,220.155640 175.405457,223.695648 175.927353,231.536453 
	C176.246765,236.334930 176.084045,241.165512 176.125732,246.426285 
M166.686295,228.406921 
	C161.243347,228.168762 155.778900,227.584183 150.371506,227.919449 
	C148.894180,228.011063 146.548386,230.771194 146.394043,232.469589 
	C145.884460,238.077942 146.089157,243.763519 146.233627,249.413971 
	C146.311066,252.442947 147.819122,254.402145 151.209808,254.358032 
	C155.367783,254.303925 159.556000,254.620361 163.670685,254.193619 
	C165.235458,254.031342 167.887009,252.270401 167.903915,251.204147 
	C168.020981,243.820770 167.573761,236.428436 166.686295,228.406921 
z"/>
<path fill="#470BBD" opacity="1.000000" stroke="none" 
	d="
M221.230911,236.184326 
	C219.282745,239.587769 217.408051,242.589249 214.952454,246.520767 
	C217.133408,250.351318 220.127777,255.610489 223.344101,261.259491 
	C218.019180,262.827881 214.271500,262.601746 212.215851,257.390594 
	C211.490143,255.550949 210.307404,253.891144 209.328583,252.151886 
	C204.687378,243.904892 204.686798,243.905228 194.448334,245.299576 
	C194.448334,250.613937 194.448334,256.032440 194.448334,261.734924 
	C191.810120,261.734924 189.725891,261.734924 187.249695,261.734924 
	C187.249695,253.620636 187.249695,245.591385 187.249695,237.030441 
	C194.433838,237.030441 201.401855,236.907120 208.362457,237.080750 
	C212.023285,237.172073 214.063126,236.135498 214.011093,232.085846 
	C213.960190,228.125305 211.632004,227.510574 208.415802,227.545258 
	C201.453217,227.620331 194.489243,227.568375 187.199188,227.568375 
	C187.199188,224.799728 187.199188,222.577057 187.199188,220.039978 
	C196.092758,220.039978 204.745041,219.827072 213.379959,220.122040 
	C218.338104,220.291412 220.693512,223.420090 221.447754,229.831726 
	C221.677246,231.782654 221.367264,233.797058 221.230911,236.184326 
z"/>
<path fill="#4A0FBE" opacity="1.000000" stroke="none" 
	d="
M319.209961,240.392365 
	C320.580872,238.962769 321.908875,237.228775 323.320801,237.157562 
	C329.459961,236.847870 335.625854,236.921951 341.777344,237.062302 
	C344.998108,237.135818 346.308472,235.701172 346.388092,232.642090 
	C346.469849,229.501648 345.485779,227.524124 341.903442,227.568268 
	C335.749756,227.644119 329.593079,227.508240 323.440155,227.609787 
	C320.655365,227.655746 319.119537,227.010010 319.124298,223.749908 
	C319.128967,220.544067 320.510010,219.845337 323.375946,219.907303 
	C330.359192,220.058273 337.349060,219.882889 344.333740,219.995270 
	C349.827728,220.083664 352.537354,222.434525 353.730194,227.756683 
	C355.502350,235.663528 353.203430,241.521667 346.597260,244.915756 
	C348.121124,247.617020 349.640594,250.311081 351.160645,253.004822 
	C352.664093,255.669113 354.168091,258.333069 355.912598,261.423706 
	C350.367157,262.659729 346.468872,262.583130 344.639801,257.170715 
	C344.118347,255.627594 342.798798,254.358749 342.249054,252.819839 
	C339.741302,245.800156 335.151520,242.815048 327.013733,245.476929 
	C327.013733,250.442169 327.013733,255.966156 327.013733,261.756531 
	C324.211731,261.756531 322.125854,261.756531 319.205658,261.756531 
	C319.205658,254.706375 319.205658,247.779785 319.209961,240.392365 
z"/>
<path fill="#480CBD" opacity="1.000000" stroke="none" 
	d="
M393.999420,235.839386 
	C395.760376,231.480453 397.056549,227.286026 399.208588,223.589890 
	C400.289368,221.733612 402.904205,219.756165 404.866638,219.712997 
	C406.826447,219.669876 409.873627,221.521225 410.659973,223.321381 
	C416.093872,235.761322 421.061310,248.405029 426.192810,261.018158 
	C419.200592,263.174500 418.592529,262.908844 416.190186,256.911194 
	C412.673401,248.131302 409.166504,239.347427 405.069061,229.098724 
	C402.593109,235.305176 400.586884,240.334198 398.312836,246.034500 
	C404.340393,245.080368 407.835358,246.677994 407.834717,253.802841 
	C404.756226,253.802841 401.708954,253.949753 398.683228,253.757462 
	C396.153015,253.596680 394.508057,254.304062 393.992767,256.936829 
	C392.901886,262.510864 389.170013,262.834900 383.803253,261.372650 
	C387.186340,252.931564 390.537262,244.570663 393.999420,235.839386 
z"/>
<path fill="#4508BC" opacity="1.000000" stroke="none" 
	d="
M260.023499,232.130066 
	C258.361908,235.053345 256.855591,237.639297 255.427658,240.090668 
	C259.497040,247.141251 263.503479,254.082718 267.727112,261.400543 
	C262.125793,262.744598 258.370117,262.404816 256.404541,257.119568 
	C255.489258,254.658493 253.586731,252.575027 252.579514,250.135513 
	C250.483231,245.058151 246.859192,243.633179 241.127777,245.161484 
	C241.127777,250.493347 241.127777,256.044342 241.127777,261.783875 
	C238.361359,261.783875 236.268799,261.783875 233.879883,261.783875 
	C233.879883,247.934830 233.879883,234.331131 233.879883,220.347595 
	C236.109192,220.347595 238.176682,220.347595 240.845276,220.347595 
	C240.845276,225.583115 240.845276,230.986633 240.845276,236.405975 
	C246.150772,237.891327 249.711594,236.940659 251.796539,231.992767 
	C252.822479,229.558075 254.675583,227.460632 255.619064,225.004883 
	C257.472290,220.181183 260.737701,218.953888 266.453339,220.711914 
	C264.301941,224.511292 262.240387,228.152008 260.023499,232.130066 
z"/>
<path fill="#470BBD" opacity="1.000000" stroke="none" 
	d="
M288.509094,261.968262 
	C282.213074,261.333252 278.674530,257.762543 278.427277,252.246704 
	C277.953278,241.673035 278.289368,231.063049 278.289368,220.217072 
	C280.552246,220.217072 282.647430,220.217072 285.455261,220.217072 
	C285.455261,227.830246 285.452026,235.270935 285.457581,242.711624 
	C285.458954,244.542770 285.505798,246.373901 285.502472,248.205002 
	C285.494720,252.453613 287.263000,254.664246 291.850281,254.409637 
	C296.165527,254.170105 300.508911,254.478546 304.832062,254.325470 
	C307.890320,254.217163 308.913635,255.462830 308.884521,258.459534 
	C308.856232,261.375763 307.633148,262.162537 304.931122,262.080811 
	C299.608093,261.919922 294.277588,262.006317 288.509094,261.968262 
z"/>
<path fill="#4204BB" opacity="1.000000" stroke="none" 
	d="
M436.897583,245.996857 
	C436.897552,237.205643 436.897552,228.913544 436.897552,220.305359 
	C439.469452,220.305359 441.519989,220.305359 443.943420,220.305359 
	C443.943420,234.151276 443.943420,247.852432 443.943420,261.787415 
	C441.638794,261.787415 439.697083,261.787415 436.897583,261.787415 
	C436.897583,256.678040 436.897583,251.587006 436.897583,245.996857 
z"/>
<path fill="#4A0FBE" opacity="1.000000" stroke="none" 
	d="
M372.688171,255.323776 
	C372.400391,257.705780 372.115417,259.966400 371.098480,261.826996 
	C370.857391,262.268066 367.578308,261.879547 366.754517,260.942566 
	C365.893372,259.963043 365.814636,257.670898 366.339355,256.319702 
	C366.682587,255.435913 368.673126,255.064423 369.993622,254.737534 
	C370.731964,254.554749 371.608826,254.931458 372.688171,255.323776 
z"/>
<path fill="#FAF9FD" opacity="1.000000" stroke="none" 
	d="
M166.997025,228.722961 
	C167.573761,236.428436 168.020981,243.820770 167.903915,251.204147 
	C167.887009,252.270401 165.235458,254.031342 163.670685,254.193619 
	C159.556000,254.620361 155.367783,254.303925 151.209808,254.358032 
	C147.819122,254.402145 146.311066,252.442947 146.233627,249.413971 
	C146.089157,243.763519 145.884460,238.077942 146.394043,232.469589 
	C146.548386,230.771194 148.894180,228.011063 150.371506,227.919449 
	C155.778900,227.584183 161.243347,228.168762 166.997025,228.722961 
z"/>
</svg>